<svg aria-hidden="true" style="width:0;height:0;position:absolute;overflow:hidden" xmlns="http://www.w3.org/2000/svg"><defs><symbol id="icon-call-back" viewBox="0 0 32 32"><path d="M18.609 8.906c-.715-.709-1.109-1.652-1.109-2.655s.394-1.947 1.109-2.655L21.87.364a1.25 1.25 0 0 1 1.76 1.776l-2.825 2.8h4.317c3.788 0 6.872 3.082 6.875 6.869L32 15.251a1.25 1.25 0 0 1-1.249 1.251h-.001a1.25 1.25 0 0 1-1.25-1.249l-.003-3.442a4.38 4.38 0 0 0-4.375-4.371h-4.443l2.951 2.925a1.25 1.25 0 0 1-1.76 1.776l-3.261-3.232zm11.936 13.626c-1.746-1.683-3.208-2.655-4.603-3.058-1.922-.555-3.702-.05-5.29 1.501l-.007.007-1.692 1.679c-1.051-.59-3.093-1.889-5.327-4.123l-.165-.164c-2.219-2.219-3.526-4.273-4.121-5.328l1.677-1.69.007-.007c1.551-1.588 2.056-3.368 1.501-5.29-.403-1.395-1.375-2.857-3.058-4.603C8.607.564 7.452.049 6.214.004S3.787.39 2.865 1.218l-.036.032-.049.046C.945 3.131-.017 5.7-.002 8.725c.026 5.139 2.85 11.016 7.555 15.72a30.583 30.583 0 0 0 2.997 2.61 1.25 1.25 0 0 0 1.522-1.983 27.919 27.919 0 0 1-2.75-2.393c-4.25-4.25-6.8-9.47-6.823-13.965-.012-2.33.689-4.274 2.027-5.626l.01-.009a2.248 2.248 0 0 1 3.132.113c3.237 3.356 3.002 4.941 1.572 6.407l-2.317 2.334a1.25 1.25 0 0 0-.255 1.389c.059.132 1.482 3.277 5.026 6.821l.164.164c3.544 3.544 6.688 4.967 6.82 5.025.471.21 1.023.109 1.389-.255l2.335-2.317c1.466-1.43 3.051-1.664 6.407 1.572a2.25 2.25 0 0 1 .113 3.132l-.009.01c-1.34 1.327-3.264 2.027-5.569 2.027h-.057c-1.842-.009-3.975-.514-6.168-1.46a1.25 1.25 0 0 0-.991 2.296c2.535 1.094 4.939 1.654 7.146 1.665h.07c2.995 0 5.538-.961 7.359-2.782l.046-.049.032-.036c.827-.922 1.258-2.111 1.214-3.349s-.561-2.393-1.452-3.253z"/></symbol><symbol id="icon-face-footer" viewBox="0 0 21 32"><path d="M20.323 16.129c0-5.524-4.476-10-10-10s-10 4.476-10 10c0 5 3.629 9.153 8.427 9.879v-6.976H6.21v-2.903h2.54v-2.177c0-2.5 1.492-3.911 3.75-3.911 1.129 0 2.258.202 2.258.202v2.46h-1.25c-1.25 0-1.653.766-1.653 1.573v1.855h2.782l-.444 2.903h-2.339v6.976c4.798-.726 8.468-4.879 8.468-9.879z"/></symbol><symbol id="icon-favourite" viewBox="0 0 32 32"><path d="M21.548 5.785h-3.006a4.674 4.674 0 0 0-1.352-3.688 4.684 4.684 0 0 0-6.618 0l-.933.933-.933-.933a4.684 4.684 0 0 0-6.618 0C1.204 2.981.717 4.156.717 5.406s.487 2.425 1.371 3.309l2.262 2.262a9.758 9.758 0 0 0-1.141 4.586c0 5.392 4.386 9.778 9.778 9.778h1.461l6.372 5.931v-5.931h.727c5.392 0 9.778-4.386 9.778-9.778s-4.386-9.778-9.778-9.778zM3.357 3.366c.562-.562 1.301-.844 2.04-.844s1.478.281 2.04.844l2.202 2.202 2.202-2.202a2.888 2.888 0 0 1 4.08 0c.545.545.845 1.269.845 2.04s-.3 1.495-.845 2.04l-6.282 6.282-6.282-6.282a2.888 2.888 0 0 1 0-4.08zm18.191 20.18h-2.522v3.603l-3.871-3.603h-2.167c-4.402 0-7.983-3.581-7.983-7.983 0-1.126.236-2.229.688-3.245l3.948 3.948 7.551-7.551c.343-.343.622-.727.836-1.135h3.522c4.402 0 7.983 3.581 7.983 7.983s-3.581 7.983-7.983 7.983z"/><path d="M12.372 15.052h1.897v1.795h-1.897v-1.795zM16.561 15.052h1.897v1.795h-1.897v-1.795zM20.749 15.052h1.897v1.795h-1.897v-1.795z"/></symbol><symbol id="icon-i" viewBox="0 0 32 32"><path d="m23.14 17.92.84-5.52h-5.34V8.8c0-1.56.72-3 3.12-3h2.46V1.06S22 .64 19.9.64c-4.38 0-7.26 2.7-7.26 7.5v4.26H7.72v5.52h4.92v13.44h6V17.92h4.5z"/></symbol><symbol id="icon-inst" viewBox="0 0 32 32"><path d="M16 9.1c-3.84 0-6.9 3.12-6.9 6.9 0 3.84 3.06 6.9 6.9 6.9 3.78 0 6.9-3.06 6.9-6.9 0-3.78-3.12-6.9-6.9-6.9zm0 11.4c-2.46 0-4.5-1.98-4.5-4.5 0-2.46 1.98-4.44 4.5-4.44A4.43 4.43 0 0 1 20.44 16c0 2.52-1.98 4.5-4.44 4.5zm8.76-11.64c0-.9-.72-1.62-1.62-1.62s-1.62.72-1.62 1.62c0 .9.72 1.62 1.62 1.62s1.62-.72 1.62-1.62zm4.56 1.62c-.12-2.16-.6-4.08-2.16-5.64s-3.48-2.04-5.64-2.16c-2.22-.12-8.88-.12-11.1 0-2.16.12-4.02.6-5.64 2.16-1.56 1.56-2.04 3.48-2.16 5.64-.12 2.22-.12 8.88 0 11.1.12 2.16.6 4.02 2.16 5.64 1.62 1.56 3.48 2.04 5.64 2.16 2.22.12 8.88.12 11.1 0 2.16-.12 4.08-.6 5.64-2.16 1.56-1.62 2.04-3.48 2.16-5.64.12-2.22.12-8.88 0-11.1zm-2.88 13.44c-.42 1.2-1.38 2.1-2.52 2.58-1.8.72-6 .54-7.92.54-1.98 0-6.18.18-7.92-.54a4.55 4.55 0 0 1-2.58-2.58c-.72-1.74-.54-5.94-.54-7.92 0-1.92-.18-6.12.54-7.92a4.628 4.628 0 0 1 2.58-2.52c1.74-.72 5.94-.54 7.92-.54 1.92 0 6.12-.18 7.92.54 1.14.42 2.04 1.38 2.52 2.52.72 1.8.54 6 .54 7.92 0 1.98.18 6.18-.54 7.92z"/></symbol><symbol id="icon-inst-footer" viewBox="0 0 21 32"><path d="M9.919 11.492a4.638 4.638 0 0 0-4.637 4.637 4.612 4.612 0 0 0 4.637 4.637 4.638 4.638 0 0 0 4.637-4.637c0-2.54-2.097-4.637-4.637-4.637zm0 7.661a3.02 3.02 0 0 1-3.024-3.024c0-1.653 1.331-2.984 3.024-2.984a2.978 2.978 0 0 1 2.984 2.984c0 1.694-1.331 3.024-2.984 3.024zm5.887-7.822c0-.605-.484-1.089-1.089-1.089s-1.089.484-1.089 1.089.484 1.089 1.089 1.089 1.089-.484 1.089-1.089zm3.065 1.088c-.081-1.452-.403-2.742-1.452-3.79s-2.339-1.371-3.79-1.452c-1.492-.081-5.968-.081-7.46 0-1.452.081-2.702.403-3.79 1.452-1.048 1.048-1.371 2.339-1.452 3.79-.081 1.492-.081 5.968 0 7.46.081 1.452.403 2.702 1.452 3.79 1.089 1.048 2.339 1.371 3.79 1.452 1.492.081 5.968.081 7.46 0 1.452-.081 2.742-.403 3.79-1.452 1.048-1.089 1.371-2.339 1.452-3.79.081-1.492.081-5.968 0-7.46zm-1.936 9.033c-.282.806-.927 1.411-1.694 1.734-1.21.484-4.032.363-5.323.363-1.331 0-4.153.121-5.323-.363a3.06 3.06 0 0 1-1.734-1.734c-.484-1.169-.363-3.992-.363-5.323 0-1.29-.121-4.113.363-5.323a3.113 3.113 0 0 1 1.734-1.694c1.169-.484 3.992-.363 5.323-.363 1.29 0 4.113-.121 5.323.363.766.282 1.371.927 1.694 1.694.484 1.21.363 4.032.363 5.323 0 1.331.121 4.153-.363 5.323z"/></symbol><symbol id="icon-location-pin" viewBox="0 0 32 32"><path d="M16.261.696C9.933.696 4.783 5.882 4.783 12.257c0 9.059 10.399 18.412 10.842 18.805a.957.957 0 0 0 1.272.001c.443-.394 10.842-9.748 10.842-18.807 0-6.376-5.15-11.561-11.478-11.561zm0 17.855c-3.516 0-6.377-2.861-6.377-6.377s2.861-6.377 6.377-6.377c3.516 0 6.377 2.861 6.377 6.377s-2.861 6.377-6.377 6.377z"/></symbol><symbol id="icon-phone-call" viewBox="0 0 32 32"><path d="m30.673 23.243-4.322-4.322c-1.543-1.543-4.167-.926-4.785 1.08-.463 1.389-2.006 2.161-3.396 1.852-3.087-.772-7.254-4.785-8.026-8.026-.463-1.389.463-2.933 1.852-3.396 2.006-.617 2.624-3.241 1.08-4.785L8.754 1.324c-1.235-1.08-3.087-1.08-4.167 0L1.654 4.257c-2.933 3.087.309 11.267 7.563 18.521s15.434 10.65 18.521 7.563l2.933-2.933c1.08-1.235 1.08-3.087 0-4.167z"/></symbol><symbol id="icon-facebook" viewBox="0 0 32 32"><path d="M19 6h5V0h-5c-3.86 0-7 3.14-7 7v3H8v6h4v16h6V16h5l1-6h-6V7c0-.542.458-1 1-1z"/></symbol><symbol id="icon-instagram" viewBox="0 0 32 32"><path d="M16 2.881c4.275 0 4.781.019 6.462.094 1.563.069 2.406.331 2.969.55a4.952 4.952 0 0 1 1.837 1.194 5.015 5.015 0 0 1 1.2 1.838c.219.563.481 1.412.55 2.969.075 1.688.094 2.194.094 6.463s-.019 4.781-.094 6.463c-.069 1.563-.331 2.406-.55 2.969a4.94 4.94 0 0 1-1.194 1.837 5.02 5.02 0 0 1-1.837 1.2c-.563.219-1.413.481-2.969.55-1.688.075-2.194.094-6.463.094s-4.781-.019-6.463-.094c-1.563-.069-2.406-.331-2.969-.55a4.952 4.952 0 0 1-1.838-1.194 5.02 5.02 0 0 1-1.2-1.837c-.219-.563-.481-1.413-.55-2.969-.075-1.688-.094-2.194-.094-6.463s.019-4.781.094-6.463c.069-1.563.331-2.406.55-2.969a4.964 4.964 0 0 1 1.194-1.838 5.015 5.015 0 0 1 1.838-1.2c.563-.219 1.412-.481 2.969-.55 1.681-.075 2.188-.094 6.463-.094zM16 0c-4.344 0-4.887.019-6.594.094-1.7.075-2.869.35-3.881.744-1.056.412-1.95.956-2.837 1.85a7.833 7.833 0 0 0-1.85 2.831C.444 6.538.169 7.7.094 9.4.019 11.113 0 11.656 0 16s.019 4.887.094 6.594c.075 1.7.35 2.869.744 3.881.413 1.056.956 1.95 1.85 2.837a7.82 7.82 0 0 0 2.831 1.844c1.019.394 2.181.669 3.881.744 1.706.075 2.25.094 6.594.094s4.888-.019 6.594-.094c1.7-.075 2.869-.35 3.881-.744 1.05-.406 1.944-.956 2.831-1.844s1.438-1.781 1.844-2.831c.394-1.019.669-2.181.744-3.881.075-1.706.094-2.25.094-6.594s-.019-4.887-.094-6.594c-.075-1.7-.35-2.869-.744-3.881a7.506 7.506 0 0 0-1.831-2.844A7.82 7.82 0 0 0 26.482.843C25.463.449 24.301.174 22.601.099c-1.712-.081-2.256-.1-6.6-.1z"/><path d="M16 7.781c-4.537 0-8.219 3.681-8.219 8.219s3.681 8.219 8.219 8.219 8.219-3.681 8.219-8.219A8.221 8.221 0 0 0 16 7.781zm0 13.55a5.331 5.331 0 1 1 0-10.663 5.331 5.331 0 0 1 0 10.663zM26.462 7.456a1.919 1.919 0 1 1-3.838 0 1.919 1.919 0 0 1 3.838 0z"/></symbol></defs></svg>