<svg aria-hidden="true" style="position: absolute; width: 0; height: 0; overflow: hidden;" version="1.1" xmlns="http://www.w3.org/2000/svg" xmlns:xlink="http://www.w3.org/1999/xlink">
<defs>
<symbol id="icon-call-back" viewBox="0 0 32 32">
<path d="M18.609 8.906c-0.715-0.709-1.109-1.652-1.109-2.655s0.394-1.947 1.109-2.655l3.261-3.232c0.49-0.486 1.282-0.482 1.768 0.008s0.482 1.282-0.008 1.768l-2.825 2.8h4.317c3.788 0 6.872 3.082 6.875 6.869l0.003 3.442c0.001 0.69-0.559 1.25-1.249 1.251-0 0-0.001 0-0.001 0-0.69 0-1.249-0.559-1.25-1.249l-0.003-3.442c-0.002-2.41-1.965-4.371-4.375-4.371h-4.443l2.951 2.925c0.49 0.486 0.494 1.277 0.008 1.768-0.244 0.247-0.566 0.37-0.888 0.37-0.318 0-0.636-0.121-0.88-0.362l-3.261-3.232zM30.545 22.532c-1.746-1.683-3.208-2.655-4.603-3.058-1.922-0.555-3.702-0.050-5.29 1.501-0.002 0.002-0.005 0.005-0.007 0.007l-1.692 1.679c-1.051-0.59-3.093-1.889-5.327-4.123l-0.165-0.164c-2.219-2.219-3.526-4.273-4.121-5.328l1.677-1.69c0.002-0.002 0.005-0.005 0.007-0.007 1.551-1.588 2.056-3.368 1.501-5.29-0.403-1.395-1.375-2.857-3.058-4.603-0.86-0.892-2.015-1.407-3.253-1.452s-2.427 0.386-3.349 1.214l-0.036 0.032c-0.017 0.015-0.033 0.031-0.049 0.046-1.835 1.835-2.797 4.404-2.782 7.429 0.026 5.139 2.85 11.016 7.555 15.72 0.887 0.887 1.896 1.765 2.997 2.61 0.548 0.42 1.333 0.316 1.753-0.231s0.316-1.332-0.231-1.752c-1.015-0.778-1.94-1.583-2.75-2.393-4.25-4.25-6.8-9.47-6.823-13.965-0.012-2.33 0.689-4.274 2.027-5.626l0.010-0.009c0.909-0.816 2.284-0.766 3.132 0.113 3.237 3.356 3.002 4.941 1.572 6.407l-2.317 2.334c-0.363 0.366-0.465 0.918-0.255 1.389 0.059 0.132 1.482 3.277 5.026 6.821l0.164 0.164c3.544 3.544 6.688 4.967 6.82 5.025 0.471 0.21 1.023 0.109 1.389-0.255l2.335-2.317c1.466-1.43 3.051-1.664 6.407 1.572 0.879 0.848 0.928 2.223 0.113 3.132l-0.009 0.010c-1.34 1.327-3.264 2.027-5.569 2.027-0.019 0-0.038 0-0.057-0-1.842-0.009-3.975-0.514-6.168-1.46-0.634-0.273-1.37 0.019-1.643 0.653s0.019 1.369 0.652 1.643c2.535 1.094 4.939 1.654 7.146 1.665 0.023 0 0.047 0 0.070 0 2.995 0 5.538-0.961 7.359-2.782 0.016-0.016 0.031-0.032 0.046-0.049l0.032-0.036c0.827-0.922 1.258-2.111 1.214-3.349s-0.561-2.393-1.452-3.253z"></path>
</symbol>
<symbol id="icon-face-footer" viewBox="0 0 21 32">
<path d="M20.323 16.129c0-5.524-4.476-10-10-10s-10 4.476-10 10c0 5 3.629 9.153 8.427 9.879v-6.976h-2.54v-2.903h2.54v-2.177c0-2.5 1.492-3.911 3.75-3.911 1.129 0 2.258 0.202 2.258 0.202v2.46h-1.25c-1.25 0-1.653 0.766-1.653 1.573v1.855h2.782l-0.444 2.903h-2.339v6.976c4.798-0.726 8.468-4.879 8.468-9.879z"></path>
</symbol>
<symbol id="icon-favourite" viewBox="0 0 32 32">
<path d="M21.548 5.785h-3.006c0.106-1.321-0.344-2.679-1.352-3.688-1.825-1.825-4.794-1.825-6.618 0l-0.933 0.933-0.933-0.933c-1.825-1.825-4.794-1.825-6.618 0-0.884 0.884-1.371 2.059-1.371 3.309s0.487 2.425 1.371 3.309l2.262 2.262c-0.748 1.407-1.141 2.978-1.141 4.586 0 5.392 4.386 9.778 9.778 9.778h1.461l6.372 5.931v-5.931h0.727c5.392 0 9.778-4.386 9.778-9.778s-4.386-9.778-9.778-9.778zM3.357 3.366c0.562-0.562 1.301-0.844 2.040-0.844s1.478 0.281 2.040 0.844l2.202 2.202 2.202-2.202c1.125-1.125 2.955-1.125 4.080 0 0.545 0.545 0.845 1.269 0.845 2.040s-0.3 1.495-0.845 2.040l-6.282 6.282-6.282-6.282c-1.125-1.125-1.125-2.955 0-4.080zM21.548 23.546h-2.522v3.603l-3.871-3.603h-2.167c-4.402 0-7.983-3.581-7.983-7.983 0-1.126 0.236-2.229 0.688-3.245l3.948 3.948 7.551-7.551c0.343-0.343 0.622-0.727 0.836-1.135h3.522c4.402 0 7.983 3.581 7.983 7.983s-3.581 7.983-7.983 7.983z"></path>
<path d="M12.372 15.052h1.897v1.795h-1.897v-1.795z"></path>
<path d="M16.561 15.052h1.897v1.795h-1.897v-1.795z"></path>
<path d="M20.749 15.052h1.897v1.795h-1.897v-1.795z"></path>
</symbol>
<symbol id="icon-i" viewBox="0 0 32 32">
<path d="M23.14 17.92l0.84-5.52h-5.34v-3.6c0-1.56 0.72-3 3.12-3h2.46v-4.74c0 0-2.22-0.42-4.32-0.42-4.38 0-7.26 2.7-7.26 7.5v4.26h-4.92v5.52h4.92v13.44h6v-13.44h4.5z"></path>
</symbol>
<symbol id="icon-inst" viewBox="0 0 32 32">
<path d="M16 9.1c-3.84 0-6.9 3.12-6.9 6.9 0 3.84 3.060 6.9 6.9 6.9 3.78 0 6.9-3.060 6.9-6.9 0-3.78-3.12-6.9-6.9-6.9zM16 20.5c-2.46 0-4.5-1.98-4.5-4.5 0-2.46 1.98-4.44 4.5-4.44 2.46 0 4.44 1.98 4.44 4.44 0 2.52-1.98 4.5-4.44 4.5zM24.76 8.86c0-0.9-0.72-1.62-1.62-1.62s-1.62 0.72-1.62 1.62c0 0.9 0.72 1.62 1.62 1.62s1.62-0.72 1.62-1.62zM29.32 10.48c-0.12-2.16-0.6-4.080-2.16-5.64s-3.48-2.040-5.64-2.16c-2.22-0.12-8.88-0.12-11.1 0-2.16 0.12-4.020 0.6-5.64 2.16-1.56 1.56-2.040 3.48-2.16 5.64-0.12 2.22-0.12 8.88 0 11.1 0.12 2.16 0.6 4.020 2.16 5.64 1.62 1.56 3.48 2.040 5.64 2.16 2.22 0.12 8.88 0.12 11.1 0 2.16-0.12 4.080-0.6 5.64-2.16 1.56-1.62 2.040-3.48 2.16-5.64 0.12-2.22 0.12-8.88 0-11.1zM26.44 23.92c-0.42 1.2-1.38 2.1-2.52 2.58-1.8 0.72-6 0.54-7.92 0.54-1.98 0-6.18 0.18-7.92-0.54-1.2-0.48-2.1-1.38-2.58-2.58-0.72-1.74-0.54-5.94-0.54-7.92 0-1.92-0.18-6.12 0.54-7.92 0.48-1.14 1.38-2.040 2.58-2.52 1.74-0.72 5.94-0.54 7.92-0.54 1.92 0 6.12-0.18 7.92 0.54 1.14 0.42 2.040 1.38 2.52 2.52 0.72 1.8 0.54 6 0.54 7.92 0 1.98 0.18 6.18-0.54 7.92z"></path>
</symbol>
<symbol id="icon-inst-footer" viewBox="0 0 21 32">
<path d="M9.919 11.492c-2.581 0-4.637 2.097-4.637 4.637 0 2.581 2.056 4.637 4.637 4.637 2.54 0 4.637-2.056 4.637-4.637 0-2.54-2.097-4.637-4.637-4.637zM9.919 19.153c-1.653 0-3.024-1.331-3.024-3.024 0-1.653 1.331-2.984 3.024-2.984 1.653 0 2.984 1.331 2.984 2.984 0 1.694-1.331 3.024-2.984 3.024zM15.806 11.331c0-0.605-0.484-1.089-1.089-1.089s-1.089 0.484-1.089 1.089c0 0.605 0.484 1.089 1.089 1.089s1.089-0.484 1.089-1.089zM18.871 12.419c-0.081-1.452-0.403-2.742-1.452-3.79s-2.339-1.371-3.79-1.452c-1.492-0.081-5.968-0.081-7.46 0-1.452 0.081-2.702 0.403-3.79 1.452-1.048 1.048-1.371 2.339-1.452 3.79-0.081 1.492-0.081 5.968 0 7.46 0.081 1.452 0.403 2.702 1.452 3.79 1.089 1.048 2.339 1.371 3.79 1.452 1.492 0.081 5.968 0.081 7.46 0 1.452-0.081 2.742-0.403 3.79-1.452 1.048-1.089 1.371-2.339 1.452-3.79 0.081-1.492 0.081-5.968 0-7.46zM16.935 21.452c-0.282 0.806-0.927 1.411-1.694 1.734-1.21 0.484-4.032 0.363-5.323 0.363-1.331 0-4.153 0.121-5.323-0.363-0.806-0.323-1.411-0.927-1.734-1.734-0.484-1.169-0.363-3.992-0.363-5.323 0-1.29-0.121-4.113 0.363-5.323 0.323-0.766 0.927-1.371 1.734-1.694 1.169-0.484 3.992-0.363 5.323-0.363 1.29 0 4.113-0.121 5.323 0.363 0.766 0.282 1.371 0.927 1.694 1.694 0.484 1.21 0.363 4.032 0.363 5.323 0 1.331 0.121 4.153-0.363 5.323z"></path>
</symbol>
<symbol id="icon-location-pin" viewBox="0 0 32 32">
<path d="M16.261 0.696c-6.328 0-11.478 5.186-11.478 11.561 0 9.059 10.399 18.412 10.842 18.805 0.182 0.162 0.409 0.242 0.636 0.242s0.454-0.080 0.636-0.241c0.443-0.394 10.842-9.748 10.842-18.807 0-6.376-5.15-11.561-11.478-11.561zM16.261 18.551c-3.516 0-6.377-2.861-6.377-6.377s2.861-6.377 6.377-6.377c3.516 0 6.377 2.861 6.377 6.377s-2.861 6.377-6.377 6.377z"></path>
</symbol>
<symbol id="icon-phone-call" viewBox="0 0 32 32">
<path d="M30.673 23.243l-4.322-4.322c-1.543-1.543-4.167-0.926-4.785 1.080-0.463 1.389-2.006 2.161-3.396 1.852-3.087-0.772-7.254-4.785-8.026-8.026-0.463-1.389 0.463-2.933 1.852-3.396 2.006-0.617 2.624-3.241 1.080-4.785l-4.322-4.322c-1.235-1.080-3.087-1.080-4.167 0l-2.933 2.933c-2.933 3.087 0.309 11.267 7.563 18.521s15.434 10.65 18.521 7.563l2.933-2.933c1.080-1.235 1.080-3.087 0-4.167z"></path>
</symbol>
<symbol id="icon-facebook" viewBox="0 0 32 32">
<path d="M19 6h5v-6h-5c-3.86 0-7 3.14-7 7v3h-4v6h4v16h6v-16h5l1-6h-6v-3c0-0.542 0.458-1 1-1z"></path>
</symbol>
<symbol id="icon-instagram" viewBox="0 0 32 32">
<path d="M16 2.881c4.275 0 4.781 0.019 6.462 0.094 1.563 0.069 2.406 0.331 2.969 0.55 0.744 0.288 1.281 0.638 1.837 1.194 0.563 0.563 0.906 1.094 1.2 1.838 0.219 0.563 0.481 1.412 0.55 2.969 0.075 1.688 0.094 2.194 0.094 6.463s-0.019 4.781-0.094 6.463c-0.069 1.563-0.331 2.406-0.55 2.969-0.288 0.744-0.637 1.281-1.194 1.837-0.563 0.563-1.094 0.906-1.837 1.2-0.563 0.219-1.413 0.481-2.969 0.55-1.688 0.075-2.194 0.094-6.463 0.094s-4.781-0.019-6.463-0.094c-1.563-0.069-2.406-0.331-2.969-0.55-0.744-0.288-1.281-0.637-1.838-1.194-0.563-0.563-0.906-1.094-1.2-1.837-0.219-0.563-0.481-1.413-0.55-2.969-0.075-1.688-0.094-2.194-0.094-6.463s0.019-4.781 0.094-6.463c0.069-1.563 0.331-2.406 0.55-2.969 0.288-0.744 0.638-1.281 1.194-1.838 0.563-0.563 1.094-0.906 1.838-1.2 0.563-0.219 1.412-0.481 2.969-0.55 1.681-0.075 2.188-0.094 6.463-0.094zM16 0c-4.344 0-4.887 0.019-6.594 0.094-1.7 0.075-2.869 0.35-3.881 0.744-1.056 0.412-1.95 0.956-2.837 1.85-0.894 0.888-1.438 1.781-1.85 2.831-0.394 1.019-0.669 2.181-0.744 3.881-0.075 1.713-0.094 2.256-0.094 6.6s0.019 4.887 0.094 6.594c0.075 1.7 0.35 2.869 0.744 3.881 0.413 1.056 0.956 1.95 1.85 2.837 0.887 0.887 1.781 1.438 2.831 1.844 1.019 0.394 2.181 0.669 3.881 0.744 1.706 0.075 2.25 0.094 6.594 0.094s4.888-0.019 6.594-0.094c1.7-0.075 2.869-0.35 3.881-0.744 1.050-0.406 1.944-0.956 2.831-1.844s1.438-1.781 1.844-2.831c0.394-1.019 0.669-2.181 0.744-3.881 0.075-1.706 0.094-2.25 0.094-6.594s-0.019-4.887-0.094-6.594c-0.075-1.7-0.35-2.869-0.744-3.881-0.394-1.063-0.938-1.956-1.831-2.844-0.887-0.887-1.781-1.438-2.831-1.844-1.019-0.394-2.181-0.669-3.881-0.744-1.712-0.081-2.256-0.1-6.6-0.1v0z"></path>
<path d="M16 7.781c-4.537 0-8.219 3.681-8.219 8.219s3.681 8.219 8.219 8.219 8.219-3.681 8.219-8.219c0-4.537-3.681-8.219-8.219-8.219zM16 21.331c-2.944 0-5.331-2.387-5.331-5.331s2.387-5.331 5.331-5.331c2.944 0 5.331 2.387 5.331 5.331s-2.387 5.331-5.331 5.331z"></path>
<path d="M26.462 7.456c0 1.060-0.859 1.919-1.919 1.919s-1.919-0.859-1.919-1.919c0-1.060 0.859-1.919 1.919-1.919s1.919 0.859 1.919 1.919z"></path>
</symbol>
</defs>
</svg>
